# xmcd
#
# Track frame offsets:
#	150
#	13587
#	32627
#	47825
#	63145
#	86250
#	101235
#	113407
#	126642
#	138380
#
# Disc length: 2169 seconds
#
# Revision: 2
# Processed by: cddbd v1.5PL3 Copyright (c) Steve Scherf et al.
# Submitted via: dBpowerAMP V4.0
#
DISCID=7f08770a
DTITLE=McGuffey Lane - Their First Album
DYEAR=1979
DGENRE=Country
TTITLE0=People Like You
TTITLE1=Long Time Lovin' You
TTITLE2=Ain't No One (To Love You Like I Do)
TTITLE3=Let Me Take You To The Rodeo
TTITLE4=Green Country Mountains
TTITLE5=Stagecoach
TTITLE6=Music Man
TTITLE7=Breakaway
TTITLE8=Lady Autum
TTITLE9=Stay In Love With You
EXTD=
EXTT0=
EXTT1=
EXTT2=
EXTT3=
EXTT4=
EXTT5=
EXTT6=
EXTT7=
EXTT8=
EXTT9=
PLAYORDER=
